<svg width="476" height="107" viewBox="0 0 476 107" fill="none" xmlns="http://www.w3.org/2000/svg">
<path d="M94.6418 73.2253L82.3762 86.8511L68.0498 102.072L41.4581 73.2253C26.7718 57.293 26.7718 31.4624 41.4581 15.5305C56.1443 -0.401501 79.9552 -0.401501 94.6418 15.5305C107.447 27.7565 109.238 57.3038 94.6418 73.2253ZM63.8713 39.8449H51.3358V48.9107H63.8713V62.5095H72.2283V48.9107H84.7638V39.8449H72.2283V26.2461H63.8713V39.8449Z" fill="#D2D4FF"/>
<path d="M45.8279 25.8813H88.5625V66.7643H45.8279V25.8813Z" fill="#D2D4FF"/>
<path d="M16.1171 17.9074H73.4222V71.6297H16.1171V17.9074Z" fill="#9EA0D3"/>
<path d="M135.33 60.8853V18.2656H165.408V23.5626H141.418V60.8853H135.33ZM140.81 43.6547V38.4186H162.79V43.6547H140.81Z" fill="black"/>
<path d="M173.979 60.8853V18.2656H180.067V60.8853H173.979Z" fill="black"/>
<path d="M186.036 60.8853L203.755 36.7138V41.402L187.011 18.2656H193.952L207.225 36.4703L204.485 36.5312L217.698 18.2656H224.334L207.712 41.0367V36.6529L225.43 60.8853H218.428L204.303 41.4629H206.982L193.038 60.8853H186.036Z" fill="black"/>
<path d="M231.417 60.8853V18.2656H236.409L255.528 50.4739H252.849L271.724 18.2656H276.716L276.777 60.8853H270.932L270.871 27.4593H272.272L255.467 55.71H252.666L235.74 27.4593H237.262V60.8853H231.417Z" fill="black"/>
<path d="M298.966 60.8853V44.568L300.367 48.3429L282.04 18.2656H288.555L303.959 43.6547H300.427L315.893 18.2656H321.921L303.654 48.3429L304.994 44.568V60.8853H298.966Z" fill="black"/>
<path d="M345.312 61.3724C342.065 61.3724 339.061 60.8447 336.301 59.7893C333.582 58.6934 331.207 57.1713 329.177 55.2229C327.188 53.234 325.626 50.9204 324.489 48.282C323.353 45.6437 322.784 42.7415 322.784 39.5754C322.784 36.4094 323.353 33.5072 324.489 30.8688C325.626 28.2305 327.209 25.9371 329.238 23.9888C331.268 21.9999 333.642 20.4777 336.362 19.4224C339.122 18.3265 342.126 17.7785 345.373 17.7785C348.661 17.7785 351.685 18.3468 354.445 19.4833C357.246 20.5792 359.621 22.2231 361.569 24.415L357.612 28.2508C355.988 26.546 354.161 25.2877 352.132 24.4759C350.102 23.6235 347.931 23.1973 345.617 23.1973C343.222 23.1973 340.989 23.6032 338.919 24.415C336.89 25.2268 335.124 26.3633 333.622 27.8246C332.12 29.2858 330.943 31.0312 330.091 33.0607C329.279 35.0496 328.873 37.2212 328.873 39.5754C328.873 41.9297 329.279 44.1215 330.091 46.151C330.943 48.14 332.12 49.865 333.622 51.3263C335.124 52.7875 336.89 53.9241 338.919 54.7359C340.989 55.5477 343.222 55.9536 345.617 55.9536C347.931 55.9536 350.102 55.5477 352.132 54.7359C354.161 53.8835 355.988 52.5846 357.612 50.8392L361.569 54.675C359.621 56.8668 357.246 58.531 354.445 59.6676C351.685 60.8041 348.641 61.3724 345.312 61.3724Z" fill="black"/>
<path d="M369.66 60.8853V18.2656H375.749V60.8853H369.66Z" fill="black"/>
<path d="M396.972 60.8853V23.5626H382.36V18.2656H417.613V23.5626H403V60.8853H396.972Z" fill="black"/>
<path d="M434.059 60.8853V44.568L435.459 48.3429L417.132 18.2656H423.647L439.051 43.6547H435.52L450.985 18.2656H457.013L438.747 48.3429L440.086 44.568V60.8853H434.059Z" fill="black"/>
<path d="M133.636 93.1187L136.644 78.0764H142.253C144.015 78.0764 145.376 78.4632 146.336 79.2368C147.31 80.0104 147.797 81.092 147.797 82.4816C147.797 83.7423 147.511 84.8239 146.938 85.7265C146.379 86.629 145.569 87.3238 144.509 87.8109C143.449 88.2836 142.188 88.52 140.727 88.52H135.806L136.902 87.5315L135.806 93.1187H133.636ZM143.757 93.1187L140.663 87.6605H142.962L146.035 93.1187H143.757ZM136.859 87.7679L136.128 86.6935H140.792C142.325 86.6935 143.514 86.3568 144.359 85.6835C145.218 84.9958 145.648 83.993 145.648 82.675C145.648 81.7725 145.34 81.092 144.724 80.6336C144.108 80.1752 143.22 79.9459 142.06 79.9459H137.547L138.643 78.85L136.859 87.7679Z" fill="#809098"/>
<path d="M154.407 93.2476C153.289 93.2476 152.322 93.047 151.505 92.6459C150.689 92.2304 150.059 91.6574 149.614 90.9268C149.17 90.1818 148.948 89.308 148.948 88.3051C148.948 87.0158 149.228 85.8697 149.786 84.8669C150.345 83.8641 151.104 83.0762 152.064 82.5031C153.038 81.9158 154.142 81.6221 155.374 81.6221C156.405 81.6221 157.3 81.8226 158.06 82.2238C158.819 82.6106 159.406 83.1693 159.822 83.8999C160.252 84.6305 160.467 85.5116 160.467 86.543C160.467 86.8009 160.452 87.0659 160.424 87.3381C160.395 87.596 160.359 87.8395 160.316 88.0688H150.452L150.71 86.5645H159.328L158.49 87.0803C158.618 86.278 158.561 85.6047 158.318 85.0603C158.074 84.5016 157.687 84.079 157.157 83.7925C156.641 83.4916 156.018 83.3412 155.288 83.3412C154.428 83.3412 153.669 83.5489 153.01 83.9644C152.365 84.3655 151.864 84.9314 151.505 85.662C151.147 86.3783 150.968 87.2235 150.968 88.1977C150.968 89.2292 151.262 90.0314 151.849 90.6045C152.451 91.1632 153.361 91.4425 154.578 91.4425C155.295 91.4425 155.961 91.3279 156.577 91.0987C157.193 90.8552 157.702 90.5328 158.103 90.1317L158.984 91.6144C158.439 92.1445 157.759 92.5528 156.942 92.8393C156.126 93.1115 155.28 93.2476 154.407 93.2476Z" fill="#809098"/>
<path d="M168.661 93.2476C167.687 93.2476 166.849 93.0757 166.147 92.7319C165.459 92.3737 164.929 91.8651 164.557 91.2061C164.184 90.5328 163.998 89.7234 163.998 88.7779C163.998 87.3453 164.241 86.0989 164.729 85.0388C165.216 83.9644 165.91 83.1263 166.813 82.5246C167.73 81.9229 168.819 81.6221 170.079 81.6221C171.054 81.6221 171.913 81.8155 172.658 82.2023C173.417 82.5891 174.012 83.155 174.442 83.8999C174.886 84.6305 175.108 85.5044 175.108 86.5216C175.108 87.4957 174.943 88.3911 174.614 89.2077C174.298 90.0242 173.847 90.7334 173.26 91.3351C172.687 91.9368 172.006 92.4095 171.218 92.7533C170.43 93.0828 169.578 93.2476 168.661 93.2476ZM161.269 97.2875L164.363 81.7295H166.34L165.739 84.6735L165.072 87.3166L164.771 90.0242L163.332 97.2875H161.269ZM168.575 91.4425C169.435 91.4425 170.194 91.2348 170.853 90.8193C171.526 90.4039 172.056 89.838 172.443 89.1217C172.83 88.3911 173.023 87.5602 173.023 86.629C173.023 85.6262 172.73 84.8454 172.142 84.2867C171.555 83.7137 170.717 83.4272 169.628 83.4272C168.783 83.4272 168.016 83.6349 167.329 84.0503C166.655 84.4515 166.125 85.0173 165.739 85.748C165.366 86.4643 165.18 87.2952 165.18 88.2407C165.18 89.2292 165.473 90.0099 166.061 90.583C166.648 91.156 167.486 91.4425 168.575 91.4425Z" fill="#809098"/>
<path d="M182.084 93.2476C180.995 93.2476 180.05 93.047 179.248 92.6459C178.46 92.2304 177.844 91.6574 177.4 90.9268C176.955 90.1818 176.733 89.3151 176.733 88.3266C176.733 87.0373 177.02 85.8912 177.593 84.8884C178.166 83.8713 178.954 83.0762 179.957 82.5031C180.974 81.9158 182.127 81.6221 183.417 81.6221C184.491 81.6221 185.429 81.8226 186.232 82.2238C187.034 82.6249 187.65 83.1908 188.08 83.9214C188.524 84.652 188.746 85.5187 188.746 86.5216C188.746 87.8109 188.459 88.9641 187.886 89.9813C187.313 90.9841 186.525 91.7792 185.523 92.3665C184.534 92.9539 183.388 93.2476 182.084 93.2476ZM182.213 91.4425C183.073 91.4425 183.839 91.2348 184.513 90.8193C185.186 90.4039 185.709 89.838 186.081 89.1217C186.468 88.3911 186.662 87.5602 186.662 86.629C186.662 85.6262 186.368 84.8454 185.78 84.2867C185.193 83.7137 184.355 83.4272 183.266 83.4272C182.421 83.4272 181.662 83.6349 180.988 84.0503C180.315 84.4515 179.785 85.0173 179.398 85.748C179.011 86.4643 178.818 87.2952 178.818 88.2407C178.818 89.2292 179.112 90.0099 179.699 90.583C180.286 91.156 181.124 91.4425 182.213 91.4425Z" fill="#809098"/>
<path d="M190.396 93.1187L192.652 81.7295H194.629L193.984 85.0388L193.769 84.2222C194.3 83.2624 194.973 82.5891 195.789 82.2023C196.606 81.8155 197.616 81.6221 198.819 81.6221L198.433 83.6206C198.347 83.6062 198.261 83.5991 198.175 83.5991C198.089 83.5991 197.996 83.5991 197.895 83.5991C196.764 83.5991 195.825 83.9071 195.08 84.5231C194.35 85.1391 193.855 86.1061 193.598 87.4241L192.459 93.1187H190.396Z" fill="#809098"/>
<path d="M203.436 93.2476C202.748 93.2476 202.153 93.0972 201.652 92.7963C201.165 92.4955 200.814 92.0657 200.599 91.507C200.398 90.9483 200.37 90.2893 200.513 89.53L202.576 79.2368H204.639L202.576 89.487C202.476 90.103 202.533 90.5973 202.748 90.9698C202.977 91.3279 203.4 91.507 204.016 91.507C204.302 91.507 204.589 91.464 204.875 91.3781C205.162 91.2778 205.42 91.1417 205.649 90.9698L206.079 92.5385C205.692 92.8106 205.262 92.9969 204.789 93.0972C204.331 93.1974 203.88 93.2476 203.436 93.2476ZM199.804 83.4272L200.126 81.7295H207.411L207.067 83.4272H199.804Z" fill="#809098"/>
<path d="M219.178 93.2906C218.418 93.2906 217.673 93.2118 216.943 93.0542C216.226 92.8823 215.567 92.6602 214.966 92.388C214.378 92.1158 213.905 91.8078 213.547 91.464L214.493 89.7449C214.88 90.0887 215.331 90.3896 215.847 90.6474C216.377 90.9053 216.935 91.1059 217.523 91.2491C218.125 91.3924 218.741 91.464 219.371 91.464C220.173 91.464 220.882 91.3637 221.498 91.1632C222.114 90.9626 222.587 90.6761 222.917 90.3036C223.261 89.9168 223.432 89.4512 223.432 88.9068C223.432 88.4627 223.289 88.0974 223.003 87.8109C222.716 87.5244 222.344 87.2952 221.885 87.1232C221.441 86.937 220.94 86.7723 220.381 86.629C219.837 86.4714 219.285 86.2995 218.726 86.1133C218.182 85.9127 217.68 85.6692 217.222 85.3826C216.778 85.0961 216.413 84.7308 216.126 84.2867C215.854 83.8283 215.718 83.2552 215.718 82.5676C215.718 81.6077 215.983 80.784 216.513 80.0964C217.043 79.3944 217.774 78.8572 218.705 78.4847C219.65 78.0979 220.739 77.9045 221.971 77.9045C222.902 77.9045 223.791 78.0119 224.636 78.2268C225.481 78.4417 226.205 78.7569 226.806 79.1723L225.947 80.9344C225.388 80.5333 224.758 80.2325 224.056 80.0319C223.354 79.8313 222.623 79.7311 221.864 79.7311C221.047 79.7311 220.338 79.8385 219.736 80.0534C219.135 80.2683 218.669 80.5763 218.339 80.9774C218.01 81.3642 217.838 81.8226 217.824 82.3527C217.824 82.8111 217.96 83.1836 218.232 83.4701C218.504 83.7567 218.87 83.993 219.328 84.1793C219.786 84.3655 220.288 84.5446 220.832 84.7165C221.391 84.8741 221.943 85.046 222.487 85.2322C223.031 85.4041 223.533 85.6333 223.991 85.9199C224.464 86.1921 224.836 86.543 225.109 86.9728C225.395 87.4026 225.538 87.947 225.538 88.606C225.538 89.5658 225.266 90.4039 224.722 91.1202C224.192 91.8222 223.447 92.3594 222.487 92.7319C221.541 93.1043 220.438 93.2906 219.178 93.2906Z" fill="#809098"/>
<path d="M243.806 81.6221C244.824 81.6221 245.662 81.8226 246.321 82.2238C246.98 82.6249 247.438 83.2123 247.696 83.9859C247.968 84.7451 247.99 85.662 247.761 86.7365L246.493 93.1187H244.43L245.698 86.7365C245.912 85.705 245.819 84.9027 245.418 84.3297C245.031 83.7566 244.322 83.4701 243.291 83.4701C242.245 83.4701 241.378 83.7638 240.69 84.3512C240.003 84.9385 239.537 85.8339 239.294 87.0373L238.069 93.1187H236.006L237.295 86.7365C237.496 85.705 237.395 84.9027 236.994 84.3297C236.608 83.7566 235.898 83.4701 234.867 83.4701C233.821 83.4701 232.954 83.771 232.267 84.3727C231.579 84.96 231.113 85.8697 230.87 87.1018L229.666 93.1187H227.603L229.86 81.7295H231.837L231.192 84.9958L230.805 84.1148C231.335 83.2552 232.002 82.6249 232.804 82.2238C233.62 81.8226 234.523 81.6221 235.512 81.6221C236.285 81.6221 236.958 81.751 237.532 82.0089C238.105 82.2668 238.556 82.6535 238.885 83.1693C239.229 83.6707 239.43 84.2795 239.487 84.9958L238.37 84.781C238.957 83.7208 239.709 82.9329 240.626 82.4172C241.557 81.8871 242.617 81.6221 243.806 81.6221Z" fill="#809098"/>
<path d="M255.317 93.2476C254.357 93.2476 253.498 93.0542 252.738 92.6674C251.979 92.2663 251.377 91.7004 250.933 90.9698C250.503 90.2391 250.289 89.3581 250.289 88.3266C250.289 87.3525 250.446 86.4571 250.761 85.6405C251.091 84.8239 251.542 84.1148 252.115 83.5131C252.703 82.9114 253.39 82.4458 254.178 82.1163C254.966 81.7868 255.818 81.6221 256.735 81.6221C257.724 81.6221 258.562 81.794 259.25 82.1378C259.937 82.4816 260.467 82.9902 260.84 83.6635C261.212 84.3225 261.399 85.1319 261.399 86.0918C261.399 87.4957 261.155 88.7421 260.668 89.8308C260.181 90.9053 259.479 91.7434 258.562 92.3451C257.659 92.9467 256.578 93.2476 255.317 93.2476ZM255.768 91.4425C256.628 91.4425 257.394 91.2348 258.068 90.8193C258.741 90.4039 259.264 89.838 259.636 89.1217C260.023 88.3911 260.217 87.5602 260.217 86.629C260.217 85.6262 259.923 84.8454 259.336 84.2867C258.748 83.7137 257.91 83.4272 256.821 83.4272C255.976 83.4272 255.217 83.6349 254.543 84.0503C253.87 84.4515 253.34 85.0173 252.953 85.748C252.566 86.4643 252.373 87.2952 252.373 88.2407C252.373 89.2292 252.667 90.0099 253.254 90.583C253.841 91.156 254.68 91.4425 255.768 91.4425ZM259.056 93.1187L259.658 90.1747L260.346 87.5315L260.625 84.8239L261.227 81.7295H263.29L261.033 93.1187H259.056Z" fill="#809098"/>
<path d="M264.958 93.1187L267.215 81.7295H269.192L268.547 85.0388L268.332 84.2222C268.862 83.2624 269.535 82.5891 270.352 82.2023C271.169 81.8155 272.179 81.6221 273.382 81.6221L272.995 83.6206C272.909 83.6062 272.823 83.5991 272.737 83.5991C272.651 83.5991 272.558 83.5991 272.458 83.5991C271.326 83.5991 270.388 83.9071 269.643 84.5231C268.912 85.1391 268.418 86.1061 268.16 87.4241L267.021 93.1187H264.958Z" fill="#809098"/>
<path d="M277.998 93.2476C277.31 93.2476 276.716 93.0972 276.214 92.7963C275.727 92.4955 275.376 92.0657 275.161 91.507C274.961 90.9483 274.932 90.2893 275.075 89.53L277.138 79.2368H279.201L277.138 89.487C277.038 90.103 277.095 90.5973 277.31 90.9698C277.54 91.3279 277.962 91.507 278.578 91.507C278.865 91.507 279.151 91.464 279.438 91.3781C279.724 91.2778 279.982 91.1417 280.211 90.9698L280.641 92.5385C280.254 92.8106 279.825 92.9969 279.352 93.0972C278.893 93.1974 278.442 93.2476 277.998 93.2476ZM274.366 83.4272L274.689 81.7295H281.974L281.63 83.4272H274.366Z" fill="#809098"/>
<path d="M288.107 93.2476C286.989 93.2476 286.022 93.047 285.206 92.6459C284.389 92.2304 283.759 91.6574 283.315 90.9268C282.871 90.1818 282.649 89.308 282.649 88.3051C282.649 87.0158 282.928 85.8697 283.487 84.8669C284.045 83.8641 284.805 83.0762 285.765 82.5031C286.739 81.9158 287.842 81.6221 289.074 81.6221C290.105 81.6221 291.001 81.8226 291.76 82.2238C292.519 82.6106 293.107 83.1693 293.522 83.8999C293.952 84.6305 294.167 85.5116 294.167 86.543C294.167 86.8009 294.153 87.0659 294.124 87.3381C294.095 87.596 294.06 87.8395 294.017 88.0688H284.153L284.411 86.5645H293.028L292.19 87.0803C292.319 86.278 292.262 85.6047 292.018 85.0603C291.774 84.5016 291.388 84.079 290.858 83.7925C290.342 83.4916 289.719 83.3412 288.988 83.3412C288.128 83.3412 287.369 83.5489 286.71 83.9644C286.065 84.3655 285.564 84.9314 285.206 85.662C284.848 86.3783 284.669 87.2235 284.669 88.1977C284.669 89.2292 284.962 90.0314 285.55 90.6045C286.151 91.1632 287.061 91.4425 288.279 91.4425C288.995 91.4425 289.661 91.3279 290.277 91.0987C290.893 90.8552 291.402 90.5328 291.803 90.1317L292.684 91.6144C292.14 92.1445 291.459 92.5528 290.643 92.8393C289.826 93.1115 288.981 93.2476 288.107 93.2476Z" fill="#809098"/>
<path d="M295.807 93.1187L298.064 81.7295H300.041L299.396 85.0388L299.181 84.2222C299.711 83.2624 300.384 82.5891 301.201 82.2023C302.018 81.8155 303.028 81.6221 304.231 81.6221L303.844 83.6206C303.758 83.6062 303.672 83.5991 303.586 83.5991C303.5 83.5991 303.407 83.5991 303.307 83.5991C302.175 83.5991 301.237 83.9071 300.492 84.5231C299.761 85.1391 299.267 86.1061 299.009 87.4241L297.87 93.1187H295.807Z" fill="#809098"/>
<path d="M305.078 93.2476C304.691 93.2476 304.361 93.1187 304.089 92.8608C303.831 92.5886 303.702 92.2591 303.702 91.8723C303.702 91.3995 303.853 91.0199 304.154 90.7334C304.454 90.4469 304.812 90.3036 305.228 90.3036C305.615 90.3036 305.937 90.4325 306.195 90.6904C306.453 90.9483 306.582 91.2849 306.582 91.7004C306.582 92.0012 306.51 92.2734 306.367 92.517C306.224 92.7462 306.037 92.9253 305.808 93.0542C305.593 93.1831 305.35 93.2476 305.078 93.2476Z" fill="#809098"/>
<path d="M315.331 93.1187L318.339 78.0764H323.948C325.71 78.0764 327.071 78.4632 328.031 79.2368C329.005 80.0104 329.492 81.092 329.492 82.4816C329.492 83.7423 329.206 84.8239 328.633 85.7265C328.074 86.629 327.264 87.3238 326.204 87.8109C325.144 88.2836 323.883 88.52 322.422 88.52H317.501L318.597 87.5315L317.501 93.1187H315.331ZM325.452 93.1187L322.358 87.6605H324.657L327.73 93.1187H325.452ZM318.554 87.7679L317.823 86.6935H322.487C324.019 86.6935 325.209 86.3568 326.054 85.6835C326.913 84.9958 327.343 83.993 327.343 82.675C327.343 81.7725 327.035 81.092 326.419 80.6336C325.803 80.1752 324.915 79.9459 323.754 79.9459H319.242L320.338 78.85L318.554 87.7679Z" fill="#809098"/>
<path d="M336.101 93.2476C334.984 93.2476 334.017 93.047 333.2 92.6459C332.384 92.2304 331.753 91.6574 331.309 90.9268C330.865 90.1818 330.643 89.308 330.643 88.3051C330.643 87.0158 330.922 85.8697 331.481 84.8669C332.04 83.8641 332.799 83.0762 333.759 82.5031C334.733 81.9158 335.836 81.6221 337.068 81.6221C338.1 81.6221 338.995 81.8226 339.755 82.2238C340.514 82.6106 341.101 83.1693 341.517 83.8999C341.947 84.6305 342.161 85.5116 342.161 86.543C342.161 86.8009 342.147 87.0659 342.118 87.3381C342.09 87.596 342.054 87.8395 342.011 88.0688H332.147L332.405 86.5645H341.022L340.184 87.0803C340.313 86.278 340.256 85.6047 340.013 85.0603C339.769 84.5016 339.382 84.079 338.852 83.7925C338.336 83.4916 337.713 83.3412 336.982 83.3412C336.123 83.3412 335.364 83.5489 334.705 83.9644C334.06 84.3655 333.559 84.9314 333.2 85.662C332.842 86.3783 332.663 87.2235 332.663 88.1977C332.663 89.2292 332.957 90.0314 333.544 90.6045C334.146 91.1632 335.056 91.4425 336.273 91.4425C336.99 91.4425 337.656 91.3279 338.272 91.0987C338.888 90.8552 339.396 90.5328 339.798 90.1317L340.679 91.6144C340.134 92.1445 339.454 92.5528 338.637 92.8393C337.821 93.1115 336.975 93.2476 336.101 93.2476Z" fill="#809098"/>
<path d="M347.39 93.2476C346.431 93.2476 345.521 93.1258 344.661 92.8823C343.816 92.6244 343.164 92.3092 342.706 91.9368L343.63 90.3036C344.074 90.6474 344.647 90.9268 345.349 91.1417C346.065 91.3566 346.81 91.464 347.584 91.464C348.572 91.464 349.317 91.3136 349.819 91.0127C350.32 90.7119 350.571 90.3036 350.571 89.7879C350.571 89.4154 350.42 89.136 350.12 88.9498C349.819 88.7492 349.425 88.5988 348.938 88.4985C348.465 88.3839 347.956 88.2765 347.412 88.1762C346.867 88.0616 346.359 87.904 345.886 87.7035C345.413 87.5029 345.019 87.2164 344.704 86.8439C344.403 86.4571 344.253 85.9485 344.253 85.3182C344.253 84.5589 344.468 83.9071 344.898 83.3627C345.327 82.804 345.929 82.3742 346.703 82.0733C347.476 81.7725 348.379 81.6221 349.41 81.6221C350.155 81.6221 350.886 81.7152 351.602 81.9014C352.333 82.0733 352.928 82.3241 353.386 82.6535L352.569 84.2867C352.097 83.9572 351.567 83.728 350.979 83.5991C350.392 83.4558 349.804 83.3842 349.217 83.3842C348.257 83.3842 347.534 83.5489 347.047 83.8784C346.56 84.1936 346.316 84.5947 346.316 85.0818C346.316 85.4543 346.466 85.748 346.767 85.9628C347.068 86.1634 347.455 86.321 347.928 86.4356C348.415 86.5502 348.923 86.6648 349.453 86.7794C349.998 86.8797 350.506 87.0301 350.979 87.2307C351.466 87.4169 351.86 87.6963 352.161 88.0688C352.462 88.4269 352.612 88.9212 352.612 89.5515C352.612 90.3394 352.39 91.0127 351.946 91.5715C351.516 92.1158 350.908 92.5313 350.12 92.8178C349.332 93.1043 348.422 93.2476 347.39 93.2476Z" fill="#809098"/>
<path d="M359.897 93.2476C358.808 93.2476 357.862 93.047 357.06 92.6459C356.272 92.2304 355.656 91.6574 355.212 90.9268C354.768 90.1818 354.546 89.3151 354.546 88.3266C354.546 87.0373 354.832 85.8912 355.405 84.8884C355.979 83.8713 356.766 83.0762 357.769 82.5031C358.786 81.9158 359.94 81.6221 361.229 81.6221C362.304 81.6221 363.242 81.8226 364.044 82.2238C364.846 82.6249 365.463 83.1908 365.892 83.9214C366.336 84.652 366.559 85.5187 366.559 86.5216C366.559 87.8109 366.272 88.9641 365.699 89.9813C365.126 90.9841 364.338 91.7792 363.335 92.3665C362.347 92.9539 361.2 93.2476 359.897 93.2476ZM360.026 91.4425C360.885 91.4425 361.652 91.2348 362.325 90.8193C362.998 90.4039 363.521 89.838 363.894 89.1217C364.281 88.3911 364.474 87.5602 364.474 86.629C364.474 85.6262 364.18 84.8454 363.593 84.2867C363.006 83.7137 362.168 83.4272 361.079 83.4272C360.233 83.4272 359.474 83.6349 358.801 84.0503C358.127 84.4515 357.597 85.0173 357.211 85.748C356.824 86.4643 356.63 87.2952 356.63 88.2407C356.63 89.2292 356.924 90.0099 357.511 90.583C358.099 91.156 358.937 91.4425 360.026 91.4425Z" fill="#809098"/>
<path d="M368.208 93.1187L371.389 77.1739H373.452L370.271 93.1187H368.208Z" fill="#809098"/>
<path d="M377.197 93.1187L374.468 81.7295H376.531L378.938 92.0442H377.906L384.461 81.7295H386.545L379.303 93.1187H377.197Z" fill="#809098"/>
<path d="M391.336 93.2476C390.219 93.2476 389.251 93.047 388.435 92.6459C387.618 92.2304 386.988 91.6574 386.544 90.9268C386.1 90.1818 385.878 89.308 385.878 88.3051C385.878 87.0158 386.157 85.8697 386.716 84.8669C387.274 83.8641 388.034 83.0762 388.994 82.5031C389.968 81.9158 391.071 81.6221 392.303 81.6221C393.335 81.6221 394.23 81.8226 394.989 82.2238C395.749 82.6106 396.336 83.1693 396.751 83.8999C397.181 84.6305 397.396 85.5116 397.396 86.543C397.396 86.8009 397.382 87.0659 397.353 87.3381C397.324 87.596 397.289 87.8395 397.246 88.0688H387.382L387.64 86.5645H396.257L395.419 87.0803C395.548 86.278 395.491 85.6047 395.247 85.0603C395.004 84.5016 394.617 84.079 394.087 83.7925C393.571 83.4916 392.948 83.3412 392.217 83.3412C391.357 83.3412 390.598 83.5489 389.939 83.9644C389.294 84.3655 388.793 84.9314 388.435 85.662C388.077 86.3783 387.898 87.2235 387.898 88.1977C387.898 89.2292 388.191 90.0314 388.779 90.6045C389.38 91.1632 390.29 91.4425 391.508 91.4425C392.224 91.4425 392.89 91.3279 393.506 91.0987C394.122 90.8552 394.631 90.5328 395.032 90.1317L395.913 91.6144C395.369 92.1445 394.688 92.5528 393.872 92.8393C393.055 93.1115 392.21 93.2476 391.336 93.2476Z" fill="#809098"/>
<path d="M408.632 85.1892H416.369L416.003 87.0373H408.246L408.632 85.1892ZM407.236 93.1187H405.087L408.095 78.0764H418.711L418.346 79.9459H409.857L407.236 93.1187Z" fill="#809098"/>
<path d="M423.098 93.2476C422.139 93.2476 421.279 93.0542 420.52 92.6674C419.76 92.2663 419.159 91.7004 418.715 90.9698C418.285 90.2391 418.07 89.3581 418.07 88.3266C418.07 87.3525 418.227 86.4571 418.543 85.6405C418.872 84.8239 419.323 84.1148 419.896 83.5131C420.484 82.9114 421.172 82.4458 421.959 82.1163C422.747 81.7868 423.6 81.6221 424.517 81.6221C425.505 81.6221 426.343 81.794 427.031 82.1378C427.719 82.4816 428.249 82.9902 428.621 83.6635C428.994 84.3225 429.18 85.1319 429.18 86.0918C429.18 87.4957 428.936 88.7421 428.449 89.8308C427.962 90.9053 427.26 91.7434 426.343 92.3451C425.441 92.9467 424.359 93.2476 423.098 93.2476ZM423.55 91.4425C424.409 91.4425 425.176 91.2348 425.849 90.8193C426.522 90.4039 427.045 89.838 427.418 89.1217C427.805 88.3911 427.998 87.5602 427.998 86.629C427.998 85.6262 427.704 84.8454 427.117 84.2867C426.53 83.7137 425.691 83.4272 424.603 83.4272C423.757 83.4272 422.998 83.6349 422.325 84.0503C421.651 84.4515 421.121 85.0173 420.735 85.748C420.348 86.4643 420.154 87.2952 420.154 88.2407C420.154 89.2292 420.448 90.0099 421.035 90.583C421.623 91.156 422.461 91.4425 423.55 91.4425ZM426.838 93.1187L427.439 90.1747L428.127 87.5315L428.406 84.8239L429.008 81.7295H431.071L428.815 93.1187H426.838Z" fill="#809098"/>
<path d="M436.328 93.2476C435.368 93.2476 434.459 93.1258 433.599 92.8823C432.754 92.6244 432.102 92.3092 431.643 91.9368L432.568 90.3036C433.012 90.6474 433.585 90.9268 434.287 91.1417C435.003 91.3566 435.748 91.464 436.522 91.464C437.51 91.464 438.255 91.3136 438.756 91.0127C439.258 90.7119 439.509 90.3036 439.509 89.7879C439.509 89.4154 439.358 89.136 439.057 88.9498C438.756 88.7492 438.362 88.5988 437.875 88.4985C437.403 88.3839 436.894 88.2765 436.35 88.1762C435.805 88.0616 435.297 87.904 434.824 87.7035C434.351 87.5029 433.957 87.2164 433.642 86.8439C433.341 86.4571 433.191 85.9485 433.191 85.3182C433.191 84.5589 433.406 83.9071 433.835 83.3627C434.265 82.804 434.867 82.3742 435.64 82.0733C436.414 81.7725 437.317 81.6221 438.348 81.6221C439.093 81.6221 439.824 81.7152 440.54 81.9014C441.271 82.0733 441.865 82.3241 442.324 82.6535L441.507 84.2867C441.034 83.9572 440.504 83.728 439.917 83.5991C439.33 83.4558 438.742 83.3842 438.155 83.3842C437.195 83.3842 436.471 83.5489 435.984 83.8784C435.497 84.1936 435.254 84.5947 435.254 85.0818C435.254 85.4543 435.404 85.748 435.705 85.9628C436.006 86.1634 436.393 86.321 436.865 86.4356C437.352 86.5502 437.861 86.6648 438.391 86.7794C438.936 86.8797 439.444 87.0301 439.917 87.2307C440.404 87.4169 440.798 87.6963 441.099 88.0688C441.4 88.4269 441.55 88.9212 441.55 89.5515C441.55 90.3394 441.328 91.0127 440.884 91.5715C440.454 92.1158 439.845 92.5313 439.057 92.8178C438.269 93.1043 437.36 93.2476 436.328 93.2476Z" fill="#809098"/>
<path d="M447.416 93.2476C446.729 93.2476 446.134 93.0972 445.633 92.7963C445.146 92.4955 444.794 92.0657 444.58 91.507C444.379 90.9483 444.35 90.2893 444.494 89.53L446.557 79.2368H448.62L446.557 89.487C446.456 90.103 446.514 90.5973 446.729 90.9698C446.958 91.3279 447.38 91.507 447.996 91.507C448.283 91.507 448.569 91.464 448.856 91.3781C449.143 91.2778 449.4 91.1417 449.63 90.9698L450.059 92.5385C449.673 92.8106 449.243 92.9969 448.77 93.0972C448.312 93.1974 447.86 93.2476 447.416 93.2476ZM443.784 83.4272L444.107 81.7295H451.392L451.048 83.4272H443.784Z" fill="#809098"/>
<path d="M457.525 93.2476C456.408 93.2476 455.441 93.047 454.624 92.6459C453.807 92.2304 453.177 91.6574 452.733 90.9268C452.289 90.1818 452.067 89.308 452.067 88.3051C452.067 87.0158 452.346 85.8697 452.905 84.8669C453.464 83.8641 454.223 83.0762 455.183 82.5031C456.157 81.9158 457.26 81.6221 458.492 81.6221C459.524 81.6221 460.419 81.8226 461.178 82.2238C461.938 82.6106 462.525 83.1693 462.94 83.8999C463.37 84.6305 463.585 85.5116 463.585 86.543C463.585 86.8009 463.571 87.0659 463.542 87.3381C463.514 87.596 463.478 87.8395 463.435 88.0688H453.571L453.829 86.5645H462.446L461.608 87.0803C461.737 86.278 461.68 85.6047 461.436 85.0603C461.193 84.5016 460.806 84.079 460.276 83.7925C459.76 83.4916 459.137 83.3412 458.406 83.3412C457.547 83.3412 456.787 83.5489 456.128 83.9644C455.484 84.3655 454.982 84.9314 454.624 85.662C454.266 86.3783 454.087 87.2235 454.087 88.1977C454.087 89.2292 454.381 90.0314 454.968 90.6045C455.57 91.1632 456.479 91.4425 457.697 91.4425C458.413 91.4425 459.08 91.3279 459.696 91.0987C460.312 90.8552 460.82 90.5328 461.221 90.1317L462.102 91.6144C461.558 92.1445 460.878 92.5528 460.061 92.8393C459.244 93.1115 458.399 93.2476 457.525 93.2476Z" fill="#809098"/>
<path d="M465.225 93.1187L467.482 81.7295H469.459L468.814 85.0388L468.599 84.2222C469.129 83.2624 469.803 82.5891 470.619 82.2023C471.436 81.8155 472.446 81.6221 473.649 81.6221L473.262 83.6206C473.176 83.6062 473.091 83.5991 473.005 83.5991C472.919 83.5991 472.826 83.5991 472.725 83.5991C471.593 83.5991 470.655 83.9071 469.91 84.5231C469.179 85.1391 468.685 86.1061 468.427 87.4241L467.288 93.1187H465.225Z" fill="#809098"/>
<path d="M474.496 93.2476C474.109 93.2476 473.779 93.1187 473.507 92.8608C473.249 92.5886 473.12 92.2591 473.12 91.8723C473.12 91.3995 473.271 91.0199 473.572 90.7334C473.873 90.4469 474.231 90.3036 474.646 90.3036C475.033 90.3036 475.355 90.4325 475.613 90.6904C475.871 90.9483 476 91.2849 476 91.7004C476 92.0012 475.928 92.2734 475.785 92.517C475.642 92.7462 475.456 92.9253 475.226 93.0542C475.011 93.1831 474.768 93.2476 474.496 93.2476Z" fill="#809098"/>
<path d="M75.6625 75.6607L44.322 107L12.9816 75.6607C-4.3272 58.3519 -4.3272 30.2897 12.9816 12.9813C30.2904 -4.3271 58.3533 -4.3271 75.6625 12.9813C92.9712 30.2897 92.9712 58.3519 75.6625 75.6607ZM39.3973 39.3964H24.6233V49.2454H39.3973V64.0191H49.2466V49.2454H64.0206V39.3964H49.2466V24.6227H39.3973V39.3964Z" fill="#9EA0D3"/>
<path d="M56.2605 24.8661L67.7514 44.7684L56.2605 64.6707H33.2788L21.7879 44.7684L33.2788 24.8661H56.2605ZM37.7372 36.7665L48.1835 54.8594L51.8021 52.7702L41.3558 34.6773L37.7372 36.7665Z" fill="white"/>
</svg>
