<svg width="120" height="122" viewBox="0 0 120 122" fill="none" xmlns="http://www.w3.org/2000/svg">
<path d="M108.236 83.4905L94.2085 99.0264L77.8244 116.382L47.413 83.4905C30.6173 65.3247 30.6173 35.873 47.413 17.7076C64.2087 -0.457785 91.4398 -0.457785 108.236 17.7076C122.881 31.6476 124.929 65.337 108.236 83.4905ZM73.0457 45.4306H58.7096V55.7674H73.0457V71.2725H82.6031V55.7674H96.9391V45.4306H82.6031V29.9255H73.0457V45.4306Z" fill="#D2D4FF"/>
<path d="M52.4105 29.5095H101.283V76.1238H52.4105V29.5095Z" fill="#D2D4FF"/>
<path d="M18.4321 20.4178H83.9685V81.6713H18.4321V20.4178Z" fill="#9EA0D3"/>
<path d="M86.5305 86.2673L50.6883 122L14.8463 86.2673C-4.94875 66.5321 -4.94875 34.5359 14.8463 14.8011C34.6413 -4.9337 66.7351 -4.9337 86.5305 14.8011C106.325 34.5359 106.325 66.5321 86.5305 86.2673ZM45.0562 44.9192H28.1602V56.149H45.0562V72.9937H56.3203V56.149H73.2164V44.9192H56.3203V28.0745H45.0562V44.9192Z" fill="#9EA0D3"/>
<path d="M64.3417 28.352L77.4831 51.0443L64.3417 73.7367H38.0589L24.9175 51.0443L38.0589 28.352H64.3417ZM43.1577 41.9207L55.1045 62.55L59.2428 60.1679L47.2961 39.5386L43.1577 41.9207Z" fill="white"/>
</svg>
